<svg width="589" height="61" viewBox="0 0 589 61" fill="none" xmlns="http://www.w3.org/2000/svg">
<path d="M331.362 60.3541C327.106 60.3541 323.326 59.4581 320.022 57.6661C316.718 55.8181 314.086 53.2981 312.126 50.1061C310.222 46.9141 309.27 43.2741 309.27 39.1861C309.27 35.1541 310.194 31.5701 312.042 28.4341C313.946 25.2421 316.522 22.7221 319.77 20.8741C323.018 18.9701 326.63 18.0181 330.606 18.0181C334.526 18.0181 337.97 18.9141 340.938 20.7061C343.962 22.4421 346.314 24.8501 347.994 27.9301C349.73 30.9541 350.598 34.3981 350.598 38.2621C350.598 38.9901 350.542 39.7461 350.43 40.5301C350.374 41.2581 350.234 42.0981 350.01 43.0501L315.906 43.1341V34.9021L344.886 34.8181L340.434 38.2621C340.322 35.8541 339.874 33.8381 339.09 32.2141C338.362 30.5901 337.27 29.3581 335.814 28.5181C334.414 27.6221 332.678 27.1741 330.606 27.1741C328.422 27.1741 326.518 27.6781 324.894 28.6861C323.27 29.6381 322.01 31.0101 321.114 32.8021C320.274 34.5381 319.854 36.6101 319.854 39.0181C319.854 41.4821 320.302 43.6381 321.198 45.4861C322.15 47.2781 323.494 48.6781 325.23 49.6861C326.966 50.6381 328.982 51.1141 331.278 51.1141C333.35 51.1141 335.226 50.7781 336.906 50.1061C338.586 49.3781 340.042 48.3141 341.274 46.9141L347.742 53.3821C345.782 55.6781 343.374 57.4141 340.518 58.5901C337.718 59.7661 334.666 60.3541 331.362 60.3541Z" fill="#2041B0"/>
<path d="M278.161 59.5141V18.9421H289.165V59.5141H278.161ZM289.165 37.0861L284.881 34.23C285.385 29.246 286.841 25.3261 289.249 22.4701C291.657 19.5581 295.129 18.1021 299.665 18.1021C301.625 18.1021 303.389 18.4381 304.957 19.1101C306.525 19.7261 307.953 20.762 309.241 22.218L302.353 30.1141C301.737 29.4421 300.981 28.9381 300.085 28.6021C299.245 28.2661 298.265 28.0981 297.145 28.0981C294.793 28.0981 292.861 28.8541 291.349 30.3661C289.893 31.8221 289.165 34.0621 289.165 37.0861Z" fill="#2041B0"/>
<path d="M249.405 60.3541C245.317 60.3541 241.621 59.4301 238.317 57.5821C235.069 55.6781 232.465 53.1301 230.505 49.9381C228.601 46.6901 227.649 43.0781 227.649 39.1021C227.649 35.1261 228.601 31.5701 230.505 28.4341C232.409 25.2421 235.013 22.7221 238.317 20.8741C241.621 18.9701 245.289 18.0181 249.321 18.0181C253.465 18.0181 257.161 18.9701 260.409 20.8741C263.713 22.7221 266.317 25.2421 268.221 28.4341C270.125 31.5701 271.077 35.1261 271.077 39.1021C271.077 43.0781 270.125 46.6901 268.221 49.9381C266.317 53.1301 263.713 55.6781 260.409 57.5821C257.161 59.4301 253.493 60.3541 249.405 60.3541ZM249.321 50.1061C251.393 50.1061 253.213 49.6581 254.781 48.7621C256.405 47.8101 257.637 46.5221 258.477 44.8981C259.373 43.2181 259.821 41.3141 259.821 39.1861C259.821 37.0581 259.373 35.1821 258.477 33.5581C257.581 31.9341 256.349 30.6741 254.781 29.7781C253.213 28.8261 251.393 28.3501 249.321 28.3501C247.305 28.3501 245.513 28.8261 243.945 29.7781C242.377 30.6741 241.145 31.9341 240.249 33.5581C239.353 35.1821 238.905 37.0581 238.905 39.1861C238.905 41.3141 239.353 43.2181 240.249 44.8981C241.145 46.5221 242.377 47.8101 243.945 48.7621C245.513 49.6581 247.305 50.1061 249.321 50.1061Z" fill="#2041B0"/>
<path d="M160.146 59.5144V0.462402H168.21L192.15 38.7664H187.53L211.386 0.462402H219.45V59.5144H208.11V20.0344L210.294 20.7064L193.662 47.4184H185.934L169.302 20.7064L171.57 20.0344V59.5144H160.146Z" fill="#2041B0"/>
<path d="M117.65 59.976V2.52002H128.654V59.976H117.65ZM108.158 29.064V19.404H138.146V29.064H108.158Z" fill="#2041B0"/>
<path d="M86.5468 60.816C82.2908 60.816 78.5108 59.92 75.2068 58.128C71.9028 56.28 69.2708 53.76 67.3108 50.568C65.4068 47.376 64.4548 43.736 64.4548 39.648C64.4548 35.616 65.3788 32.032 67.2268 28.896C69.1308 25.704 71.7068 23.184 74.9548 21.336C78.2028 19.432 81.8148 18.48 85.7908 18.48C89.7108 18.48 93.1548 19.376 96.1228 21.168C99.1468 22.904 101.499 25.312 103.179 28.392C104.915 31.416 105.783 34.86 105.783 38.724C105.783 39.452 105.727 40.208 105.615 40.992C105.559 41.72 105.419 42.56 105.195 43.512L71.0908 43.596V35.364L100.071 35.28L95.6188 38.724C95.5068 36.316 95.0588 34.3 94.2748 32.676C93.5468 31.052 92.4548 29.82 90.9988 28.98C89.5988 28.084 87.8628 27.636 85.7908 27.636C83.6068 27.636 81.7028 28.14 80.0788 29.148C78.4548 30.1 77.1948 31.472 76.2988 33.264C75.4588 35 75.0388 37.072 75.0388 39.48C75.0388 41.944 75.4868 44.1 76.3828 45.948C77.3348 47.74 78.6788 49.14 80.4148 50.148C82.1508 51.1 84.1668 51.576 86.4628 51.576C88.5348 51.576 90.4108 51.24 92.0908 50.568C93.7708 49.84 95.2268 48.776 96.4588 47.376L102.927 53.844C100.967 56.14 98.5588 57.876 95.7028 59.052C92.9028 60.228 89.8508 60.816 86.5468 60.816Z" fill="#2041B0"/>
<path d="M30.24 60.816C26.04 60.816 22.092 60.06 18.396 58.548C14.756 56.98 11.536 54.796 8.736 51.996C5.992 49.196 3.836 45.976 2.268 42.336C0.756 38.64 0 34.664 0 30.408C0 26.096 0.784 22.12 2.352 18.48C3.92 14.784 6.104 11.564 8.904 8.82C11.704 6.02 14.98 3.864 18.732 2.352C22.484 0.783999 26.544 0 30.912 0C35.784 0 40.264 0.924 44.352 2.772C48.44 4.564 51.828 7.112 54.516 10.416L46.788 18.144C44.94 15.736 42.644 13.888 39.9 12.6C37.156 11.312 34.132 10.668 30.828 10.668C27.076 10.668 23.744 11.508 20.832 13.188C17.976 14.812 15.736 17.108 14.112 20.076C12.488 22.988 11.676 26.404 11.676 30.324C11.676 34.244 12.46 37.716 14.028 40.74C15.652 43.708 17.836 46.032 20.58 47.712C23.38 49.392 26.572 50.232 30.156 50.232C33.852 50.232 37.016 49.56 39.648 48.216C42.28 46.816 44.296 44.8 45.696 42.168C47.096 39.48 47.796 36.204 47.796 32.34L55.272 37.464L29.484 37.212V27.3H59.556V28.896C59.556 35.952 58.296 41.86 55.776 46.62C53.256 51.324 49.784 54.88 45.36 57.288C40.992 59.64 35.952 60.816 30.24 60.816Z" fill="#2041B0"/>
<path d="M572.151 60.358C569.855 60.358 567.587 60.05 565.347 59.434C563.163 58.818 561.147 57.978 559.299 56.914C557.451 55.794 555.855 54.45 554.511 52.882L561.063 46.246C562.463 47.814 564.087 48.99 565.935 49.774C567.783 50.558 569.827 50.95 572.067 50.95C573.859 50.95 575.203 50.698 576.099 50.194C577.051 49.69 577.527 48.934 577.527 47.926C577.527 46.806 577.023 45.938 576.015 45.322C575.063 44.706 573.803 44.202 572.235 43.81C570.667 43.362 569.015 42.886 567.279 42.382C565.599 41.822 563.975 41.122 562.407 40.282C560.839 39.386 559.551 38.182 558.543 36.67C557.591 35.102 557.115 33.086 557.115 30.622C557.115 28.046 557.731 25.806 558.963 23.902C560.251 21.998 562.071 20.514 564.423 19.45C566.775 18.386 569.547 17.854 572.739 17.854C576.099 17.854 579.123 18.442 581.811 19.618C584.555 20.794 586.823 22.558 588.615 24.91L581.979 31.546C580.747 30.034 579.347 28.942 577.779 28.27C576.267 27.598 574.615 27.262 572.823 27.262C571.199 27.262 569.939 27.514 569.043 28.018C568.203 28.522 567.783 29.222 567.783 30.118C567.783 31.126 568.259 31.91 569.211 32.47C570.219 33.03 571.507 33.534 573.075 33.982C574.643 34.374 576.267 34.85 577.947 35.41C579.683 35.914 581.307 36.642 582.819 37.594C584.387 38.546 585.647 39.806 586.599 41.374C587.607 42.942 588.111 44.958 588.111 47.422C588.111 51.398 586.683 54.562 583.827 56.914C580.971 59.21 577.079 60.358 572.151 60.358Z" fill="#2041B0"/>
<path d="M524.164 59.434V18.862H535.168V59.434H524.164ZM535.168 37.006L530.884 34.15C531.388 29.166 532.844 25.246 535.252 22.39C537.66 19.478 541.132 18.022 545.668 18.022C547.628 18.022 549.392 18.358 550.96 19.03C552.528 19.646 553.956 20.682 555.244 22.138L548.356 30.034C547.74 29.362 546.984 28.858 546.088 28.522C545.248 28.186 544.268 28.018 543.148 28.018C540.796 28.018 538.864 28.774 537.352 30.286C535.896 31.742 535.168 33.982 535.168 37.006Z" fill="#2041B0"/>
<path d="M497.089 60.2743C493.505 60.2743 490.313 59.5183 487.513 58.0063C484.769 56.4943 482.613 54.3943 481.045 51.7063C479.477 49.0183 478.693 45.9103 478.693 42.3823V18.8623H489.781V42.1303C489.781 43.8103 490.061 45.2663 490.621 46.4983C491.181 47.6743 492.021 48.5703 493.141 49.1863C494.261 49.8023 495.577 50.1103 497.089 50.1103C499.385 50.1103 501.177 49.4103 502.465 48.0103C503.753 46.6103 504.397 44.6503 504.397 42.1303V18.8623H515.401V42.3823C515.401 45.9663 514.617 49.1023 513.049 51.7903C511.537 54.4783 509.381 56.5783 506.581 58.0903C503.837 59.5463 500.673 60.2743 497.089 60.2743Z" fill="#2041B0"/>
<path d="M372.598 59.4343V0.382324H384.022V59.4343H372.598ZM409.642 59.4343V0.382324H421.066V59.4343H409.642ZM379.822 33.9823V23.9023H412.834V33.9823H379.822Z" fill="#2041B0"/>
<circle cx="449.701" cy="39.4341" r="17" stroke="#2041B0" stroke-width="8"/>
<path d="M451.798 32.5425C451.798 31.4379 450.903 30.5425 449.798 30.5425C448.694 30.5425 447.798 31.4379 447.798 32.5425L449.798 32.5425L451.798 32.5425ZM449.798 39.4184L451.798 39.4184L451.798 32.5425L449.798 32.5425L447.798 32.5425L447.798 39.4184L449.798 39.4184Z" fill="#2041B0"/>
<path d="M459.134 36.4064C460.09 35.8541 460.418 34.6309 459.866 33.6743C459.314 32.7177 458.09 32.39 457.134 32.9423L458.134 34.6743L459.134 36.4064ZM449.809 39.4805L450.809 41.2126L459.134 36.4064L458.134 34.6743L457.134 32.9423L448.809 37.7485L449.809 39.4805Z" fill="#2041B0"/>
<circle cx="449.701" cy="39.4351" r="2.75" fill="#2041B0"/>
</svg>
